# xmcd
#
# Track frame offsets:
# 150
# 16641
# 39558
# 50105
# 60023
# 84467
# 111233
# 145818
# 162695
# 181425
# 202985
# 230412
# 243124
#
# Disc length: 3440 seconds
#
# Revision: 0
# Processed by: cddbd v1.5.1PL2 Copyright (c) Steve Scherf et al.
# Submitted via: Audion 3.0.2 (http://www.panic.com/audion/)
#
DISCID=a40d6e0d
DTITLE=Momma - Joe
DYEAR=1900
DGENRE=
TTITLE0=ww
TTITLE1=ww
TTITLE2=ww
TTITLE3=ww
TTITLE4=ww
TTITLE5=ww
TTITLE6=ww
TTITLE7=ww
TTITLE8=ww
TTITLE9=ww
TTITLE10=ww
TTITLE11=ww
TTITLE12=ww
EXTD=
EXTT0=
EXTT1=
EXTT2=
EXTT3=
EXTT4=
EXTT5=
EXTT6=
EXTT7=
EXTT8=
EXTT9=
EXTT10=
EXTT11=
EXTT12=
PLAYORDER=
